<?xml version="1.0" encoding="UTF-8"?>
<svg id="Layer_2" data-name="Layer 2" xmlns="http://www.w3.org/2000/svg" viewBox="0 0 512 512">
  <defs>
    <style>
      .cls-1 {
        fill: #000;
        stroke-width: 0px;
      }
    </style>
  </defs>
  <path class="cls-1" d="M249.917134,185.560805c.100588,2.277108-.504323,4.529741-1.732089,6.450138l-.026989.042215c-7.205372,11.270526-11.822735,21.953928-18.127975,28.163823-3.760032,3.703179-12.247296,10.206728-14.736322,11.65772-6.121114,3.568338-19.608395,8.401026-28.116706,12.206575-8.374547,3.740563-18.038172,8.729453-28.231564,15.530283-23.498795,15.6924-26.901457,29.441634-42.840649,55.301051-4.285739,6.953161-10.681216,18.066491-14.259351,25.199375-1.352551,2.696262-3.582964,4.804512-6.265738,6.183624-.814863.41889-1.598839.929526-2.339529,1.534603-3.907091,3.195513-8.188224,5.857755-12.734275,7.913606-7.789808,3.514036-16.191653,5.244241-24.985012,5.129759-7.319275-.090537-15.280464,3.389951-15.376552,10.689159-.069649,5.01523,4.613445,11.76412,8.682496,14.070029,1.868135,1.058662,4.035809,1.678514,6.332673,1.712255,7.973947.105467,15.741333-.84594,23.228964-2.839207,2.654734-.706711,5.061623,1.74831,4.290818,4.385148-4.992748,17.07963-9.368518,30.679035-10.519006,53.174076-.278265,5.440809,2.184521,10.434314,6.63743,12.957753,1.522702.862907,5.781089,1.474542,7.627931,1.675885,7.263361.78586,11.255918-4.481637,12.061844-11.750548,1.986039-18.129391,5.570718-35.596363,10.715789-52.333301.711029-2.312982,3.975781-2.371141,4.777817-.08812,2.487767,7.081502,5.445842,13.99954,8.858106,20.696087,1.21264,2.394521,3.078194,4.263233,5.253493,5.495964,3.736348,2.117368,10.997685,3.831735,15.111169,1.733707,6.508039-3.310547,6.536383-12.727537,3.220286-19.255643-4.774852-9.383402-8.5264-19.319514-11.118677-29.51151-2.122205-8.336632-3.513822-16.918462-4.100938-25.517777l-.002647-.037459c-.201668-2.853373.469869-5.698203,1.909146-8.170225,1.039358-1.785144,2.100491-3.557655,3.189548-5.319266l.000002-.000003c.784467-1.270685,2.657433-1.158557,3.292884.192824,10.453507,22.23095,22.650476,43.738978,36.355654,64.082077,16.307945,24.202561,34.946012,47.037744,55.399504,67.892567.887926.908991,1.870244,1.651596,2.919508,2.246208,5.015927,2.842498,13.178929.135531,17.489133-4.099419,5.211902-5.11019,3.605763-11.467706-1.517235-16.686867-8.548754-8.717372-16.765785-17.805265-24.604669-27.214076-7.402581-8.885128-7.119814-21.901752.708444-30.414219,10.504618-11.422748,21.012777-21.607285,31.859136-34.406977,5.850664-6.905729,12.033671-16.081676,18.177351-24.633926,4.556517-6.342855,14.239733-5.452807,17.58387,1.604841,5.315083,11.217236,10.567029,21.541194,15.41409,30.664867,1.230485,2.303311,3.041121,4.090136,5.152379,5.286575,3.81312,2.160874,11.538979,3.719684,15.697678,1.512009,6.449235-3.445297,5.958015-12.788583,2.532707-19.243412-25.789651-48.458717-43.82877-95.111877-52.132963-134.92956-1.473073-7.047642-2.577388-13.503353-3.358951-19.688096-.680948-5.388545,4.671678-9.548331,9.730854-7.572262,15.228308,5.948041,31.424107,14.671666,50.638423,18.657531,12.573127,2.6082,23.425209-1.962356,16.687432-18.511454-.974359-2.393188-3.806681-5.037847-6.245495-5.89161-5.835447-2.042833-11.50516-4.056202-17.009302-6.039929-3.119351-1.124234-4.666027-4.595707-3.456285-7.682902,4.618276-11.785586,7.882073-24.030725,9.749343-36.564012,1.152022-7.702213,1.76321-15.482703,1.840906-23.275295.079684-7.991913,3.67873-15.5778,10.009296-20.456424,2.393788-1.844763,4.683186-3.772841,6.789315-5.446148,5.146261-4.099283,11.009477-7.766144,16.853873-10.979486,17.609569-9.715087,26.229309-10.891883,32.245987-10.322405,20.351042,1.913841,30.467401,18.096408,30.996196,38.462476.609935,23.623846-14.465975,40.045512-16.627301,41.711503-5.808967,4.433715-10.93637,15.261274-6.489968,21.077533,4.433671,5.809045,16.758662,4.385353,22.574965-.061126,5.328715-4.063471,31.836398-26.199002,30.908599-62.208487-.820408-31.992901-23.860467-68.598315-59.64081-71.952858-14.380091-1.353252-26.889901,5.537922-47.611034,16.955323-7.805276,4.316783-13.569911,8.910787-19.16184,13.349149-7.15257,5.700931-13.906819,11.086613-25.338369,15.985489-3.704923,1.585731-5.954487,2.542396-9.258421,3.510113-13.636687,3.987358-24.288854,1.87282-35.567143-.359843-4.530991-.894104-9.211763-1.822322-13.989274-2.281413-30.328123-2.952647-72.306825,13.728971-76.259898,36.694187-3.0612,17.841324,15.644027,31.39986,32.278136,41.215103.822421.485279,1.656989.971973,3.337973,1.925454,10.7521,6.098813,20.025168,10.629434,27.310401,13.912119,4.136414,1.863845,6.864895,5.890448,7.065113,10.42297l.286313,6.481517ZM244.413307,242.184527l.13173-.126225c9.499044-6.342272,15.98376,3.615546,18.098267,10.993806,2.173254,7.583248,4.488601,15.187233,4.935053,22.845753.756798,12.982251,2.419642,19.152557-6.102396,28.975309-7.664008,8.833761-15.285113,17.728191-22.796333,26.600503-7.309339,8.624939-14.614318,17.341467-21.875128,26.105441-9.822752,11.856299-23.557477,6.720566-32.642166-5.71035-12.758789-17.45829-14.308005-17.775728-20.149992-32.969213h0c-3.513413-9.833442-4.22288-21.730823,3.399634-28.867904,3.603108-3.373647,7.539251-6.505018,12.023119-9.49306,8.324312-5.560963,16.017751-8.994342,24.157371-12.648263,12.891521-5.745103,26.209234-11.705154,40.820842-25.705797ZM277.941709,142.491391c-.224926-10.222856,1.292779-16.407054,6.131102-27.62007,2.035108-4.716448,5.797217-8.444349,10.924325-8.759496l3.655718-.224705c7.737984-.475629,13.900815,5.067526,14.392256,12.806023.162882,2.564825-.756646,7.112666-1.134967,9.652297-1.199018,8.015926-2.689381,15.553015-5.218577,23.232907-2.454772,7.453904-11.619712,10.421569-18.907179,7.509625l-.248351-.099237c-6.609219-2.640928-9.437767-9.381743-9.594327-16.497343ZM220.185785,126.834374c-7.952897-5.108668-6.788978-17.173512,2.013362-20.618199,8.918426-3.490115,16.334255-6.249348,27.236884-5.191191.021625.002112-.021742.000938,0,0,5.850481-.25229,9.321663,6.697284,8.753247,10.243189-1.353691,8.444613-1.837395,14.397841-4.539524,22.353366-1.956729,5.760941-7.493104,7.699689-12.924553,4.958049-2.103048-1.061558-4.936219-2.776252-6.866276-3.806538-5.584029-2.980552-10.070593-5.624523-13.67314-7.938676Z"/>
</svg>